<svg width="249" height="90" viewBox="0 0 249 90" fill="none" xmlns="http://www.w3.org/2000/svg">
<path d="M45.5 90C70.629 90 91 69.8528 91 45C91 20.1472 70.629 0 45.5 0C20.371 0 0 20.1472 0 45C0 69.8528 20.371 90 45.5 90Z" fill="#FAB029"/>
<path d="M162.963 63L178.203 32.6701H160V26H187.389L187.77 29.6916L171.006 63H162.963Z" fill="black"/>
<path d="M193.357 63L208.597 32.6701H190.394V26H217.825L218.206 29.6916L201.443 63H193.357Z" fill="black"/>
<path d="M223.753 63L238.993 32.6701H220.79V26H248.179L248.56 29.6916L231.796 63H223.753Z" fill="black"/>
<path d="M64.7301 35.6316C63.5197 33.6326 60.2188 31.7426 56.4044 31.7426C51.4896 31.7426 49.1056 33.778 49.1056 36.3585C49.1056 39.4116 52.7367 40.2475 56.9545 40.7564C64.2899 41.665 71.1119 43.555 71.1119 51.8782C71.1119 59.6562 64.1799 63 56.331 63C49.1423 63 43.6041 60.8193 41 54.4224L46.5382 51.5874C48.0787 55.4401 52.1498 57.112 56.441 57.112C60.6222 57.112 64.5467 55.6581 64.5467 51.8782C64.5467 48.6071 61.0623 47.2623 56.4044 46.7534C49.2157 45.9175 42.5771 44.0275 42.5771 36.1768C42.5771 29.0167 49.7291 26.0727 56.1843 26C61.6492 26 67.3341 27.5265 70.0116 32.9057L64.7301 35.6316Z" fill="#303030"/>
<path d="M97.0423 37.5216H102.911V62.055H97.1157L96.8223 58.4568C95.4285 61.3281 91.5408 62.7456 88.79 62.7819C81.4546 62.8183 76.0264 58.3478 76.0264 49.7338C76.0264 41.2653 81.7113 36.8311 88.9367 36.8674C92.2376 36.8674 95.4285 38.3939 96.8223 40.8654L97.0423 37.5216ZM82.1514 49.7702C82.1514 54.4588 85.4157 57.2574 89.4868 57.2574C99.1329 57.2574 99.1329 42.3556 89.4868 42.3556C85.4157 42.3556 82.1514 45.0816 82.1514 49.7702Z" fill="#303030"/>
<path d="M113.768 37.5217L114.208 40.3566C116.115 37.3036 118.682 36.8674 121.176 36.8674C123.744 36.8674 126.201 37.8488 127.558 39.1936L124.807 44.4637C123.56 43.4097 122.387 42.8645 120.369 42.8645C117.142 42.8645 114.171 44.5727 114.171 49.0796V62.0551H108.046V37.4853H113.768V37.5217Z" fill="#303030"/>
<path d="M149.564 37.5216H155.433V62.055H149.638L149.344 58.4568C147.95 61.3281 144.063 62.7456 141.312 62.7819C133.977 62.8183 128.548 58.3478 128.548 49.7338C128.548 41.2653 134.233 36.8311 141.459 36.8674C144.76 36.8674 147.95 38.3939 149.344 40.8654L149.564 37.5216ZM134.673 49.7702C134.673 54.4588 137.938 57.2574 142.009 57.2574C151.655 57.2574 151.655 42.3556 142.009 42.3556C137.938 42.3556 134.673 45.0816 134.673 49.7702Z" fill="#303030"/>
<path d="M155.432 26H76.0264V31.4155H155.432V26Z" fill="#303030"/>
</svg>
