<svg width="42" height="43" viewBox="0 0 42 43" fill="none" xmlns="http://www.w3.org/2000/svg">
<rect y="0.345215" width="42" height="42" rx="21" fill="white"/>
<path d="M29.97 25.4252C29.73 28.0952 27.8 29.8452 25 29.8452H16C13.24 29.8452 11 27.6052 11 24.8452V17.8452C11 15.1252 12.64 13.2252 15.19 12.9052C15.45 12.8652 15.72 12.8452 16 12.8452H25C25.26 12.8452 25.51 12.8552 25.75 12.8952C28.14 13.1752 29.76 14.8452 29.97 17.2652C29.9756 17.3337 29.9668 17.4026 29.9441 17.4674C29.9213 17.5323 29.8852 17.5916 29.8381 17.6416C29.7909 17.6916 29.7338 17.7311 29.6704 17.7576C29.607 17.784 29.5387 17.7968 29.47 17.7952H27.92C26.96 17.7952 26.07 18.1652 25.43 18.8252C24.67 19.5652 24.29 20.6052 24.38 21.6452C24.54 23.4652 26.14 24.8952 28.04 24.8952H29.47C29.76 24.8952 30 25.1352 29.97 25.4252Z" fill="white"/>
<path d="M31.0002 20.3152V22.3752C31.0002 22.9252 30.5602 23.3752 30.0002 23.3952H28.0402C26.9602 23.3952 25.9702 22.6052 25.8802 21.5252C25.8202 20.8952 26.0602 20.3052 26.4802 19.8952C26.8502 19.5152 27.3602 19.2952 27.9202 19.2952H30.0002C30.5602 19.3152 31.0002 19.7652 31.0002 20.3152Z" fill="white"/>
<path d="M26.8299 23.4627L17.3885 29.0375C15.8683 29.9336 14 28.7654 14 26.9172V15.7715C14 13.9233 15.8683 12.7571 17.3885 13.6532L26.8299 19.228C28.3921 20.1522 28.3921 22.5405 26.8299 23.4647V23.4627Z" fill="black"/>
</svg>
